<svg xmlns="http://www.w3.org/2000/svg" viewBox="0 0 256 256" focusable="false" color="var(--token-a75cdf42-fc16-4272-b9d7-27656f1c9af1, rgb(160, 170, 187))" style="user-select: none; width: 100%; height: 100%; display: inline-block; fill: var(--token-a75cdf42-fc16-4272-b9d7-27656f1c9af1, rgb(160, 170, 187)); color: var(--token-a75cdf42-fc16-4272-b9d7-27656f1c9af1, rgb(160, 170, 187)); flex-shrink: 0;"><g color="var(--token-a75cdf42-fc16-4272-b9d7-27656f1c9af1, rgb(160, 170, 187))" weight="fill"><path d="M216,40H40A16,16,0,0,0,24,56V200a16,16,0,0,0,16,16H53.39a8,8,0,0,0,7.23-4.57,48,48,0,0,1,86.76,0,8,8,0,0,0,7.23,4.57H216a16,16,0,0,0,16-16V56A16,16,0,0,0,216,40ZM104,168a32,32,0,1,1,32-32A32,32,0,0,1,104,168Zm112,32H159.43a63.93,63.93,0,0,0-13.16-16H192a8,8,0,0,0,8-8V80a8,8,0,0,0-8-8H64a8,8,0,0,0-8,8v96a8,8,0,0,0,6,7.75A63.72,63.72,0,0,0,48.57,200H40V56H216Z"></path></g></svg>