<svg xmlns="http://www.w3.org/2000/svg" viewBox="0 0 18 14" id="svg11521490030"><path d="M 17.687 3.971 C 17.551 3.851 17.384 3.775 17.206 3.752 C 17.028 3.729 16.847 3.76 16.686 3.841 L 12.92 5.744 L 9.776 0.446 C 9.695 0.31 9.581 0.197 9.445 0.119 C 9.309 0.041 9.155 0 8.999 0 C 8.842 0 8.688 0.041 8.552 0.119 C 8.416 0.197 8.302 0.31 8.221 0.446 L 5.077 5.746 L 1.312 3.844 C 1.152 3.763 0.972 3.732 0.794 3.755 C 0.617 3.778 0.45 3.853 0.315 3.972 C 0.179 4.09 0.081 4.247 0.033 4.422 C -0.015 4.597 -0.011 4.782 0.045 4.955 L 2.82 13.58 C 2.848 13.666 2.894 13.746 2.957 13.812 C 3.019 13.877 3.095 13.928 3.179 13.96 C 3.263 13.993 3.353 14.005 3.442 13.997 C 3.532 13.989 3.619 13.961 3.696 13.915 C 3.715 13.903 5.632 12.782 8.999 12.782 C 12.365 12.782 14.283 13.903 14.3 13.914 C 14.377 13.961 14.464 13.989 14.554 13.998 C 14.643 14.006 14.734 13.993 14.818 13.961 C 14.902 13.929 14.979 13.878 15.041 13.812 C 15.103 13.746 15.15 13.667 15.178 13.58 L 17.953 4.957 C 18.01 4.784 18.015 4.598 17.968 4.423 C 17.92 4.247 17.823 4.09 17.687 3.971 Z M 12.587 10.104 C 12.562 10.245 12.49 10.373 12.382 10.465 C 12.274 10.556 12.137 10.607 11.996 10.607 C 11.961 10.607 11.926 10.604 11.891 10.598 C 9.975 10.264 8.016 10.264 6.1 10.598 C 6.022 10.612 5.943 10.61 5.866 10.593 C 5.789 10.576 5.716 10.543 5.651 10.497 C 5.521 10.405 5.432 10.263 5.404 10.104 C 5.377 9.945 5.413 9.781 5.504 9.649 C 5.595 9.517 5.734 9.427 5.891 9.399 C 7.946 9.041 10.045 9.041 12.1 9.399 C 12.178 9.412 12.252 9.441 12.319 9.484 C 12.386 9.527 12.444 9.583 12.489 9.648 C 12.535 9.714 12.567 9.788 12.584 9.866 C 12.602 9.944 12.603 10.025 12.59 10.104 Z" fill="var(--token-0d217399-5502-4e36-ad35-aff6664c8307, rgb(255, 255, 255)) /* {&quot;name&quot;:&quot;white&quot;} */"></path></svg>