<svg xmlns="http://www.w3.org/2000/svg" viewBox="0 0 25 25" id="svg11648256061"><path d="M 12.5 11.475 C 16.625 7.725 18.75 5.8 18.75 3.362 C 18.75 1.487 17.188 0 15.313 0 C 14.238 0 13.213 0.45 12.5 1.25 C 11.787 0.45 10.762 0 9.613 0 C 7.738 0 6.25 1.563 6.25 3.438 C 6.25 5.8 8.375 7.725 12.5 11.475 Z M 11.475 12.5 C 7.725 8.375 5.8 6.25 3.362 6.25 C 1.487 6.25 0 7.813 0 9.688 C 0 10.762 0.45 11.787 1.25 12.5 C 0.45 13.213 0 14.238 0 15.388 C 0 17.263 1.563 18.75 3.438 18.75 C 5.8 18.75 7.725 16.625 11.475 12.5 Z M 13.538 12.5 C 17.275 16.625 19.2 18.75 21.638 18.75 C 23.513 18.75 25 17.188 25 15.313 C 25 14.238 24.55 13.213 23.75 12.5 C 24.55 11.787 25 10.762 25 9.613 C 25 7.738 23.438 6.25 21.563 6.25 C 19.2 6.25 17.275 8.375 13.538 12.5 Z M 12.5 13.525 C 8.375 17.275 6.25 19.2 6.25 21.637 C 6.25 23.512 7.813 25 9.688 25 C 10.762 25 11.787 24.55 12.5 23.75 C 13.213 24.55 14.238 25 15.388 25 C 17.263 25 18.75 23.437 18.75 21.562 C 18.75 19.2 16.625 17.275 12.5 13.525 Z" fill="var(--token-e59aa7d3-7c6b-40e9-94c0-b5677a71684a, rgb(0, 0, 0)) /* {&quot;name&quot;:&quot;color - 7&quot;} */"></path></svg>